<svg width="36" height="36" viewBox="0 0 36 36" fill="none" xmlns="http://www.w3.org/2000/svg">
<path d="M6 1H30C32.7614 1 35 3.23858 35 6V30C35 32.7614 32.7614 35 30 35H6C3.23858 35 1 32.7614 1 30V6C1 3.23858 3.23858 1 6 1Z" fill="#F6E000"/>
<path d="M6 1H30C32.7614 1 35 3.23858 35 6V30C35 32.7614 32.7614 35 30 35H6C3.23858 35 1 32.7614 1 30V6C1 3.23858 3.23858 1 6 1Z" stroke="#F9C901" stroke-width="2"/>
<path d="M8 12C8 10.8954 8.89543 10 10 10H21C22.1046 10 23 10.8954 23 12C23 13.1046 22.1046 14 21 14H10C8.89543 14 8 13.1046 8 12Z" fill="black"/>
<path d="M8 24C8 22.8954 8.89543 22 10 22H26C27.1046 22 28 22.8954 28 24C28 25.1046 27.1046 26 26 26H10C8.89543 26 8 25.1046 8 24Z" fill="black"/>
<path d="M8 18C8 16.8954 8.89543 16 10 16H17C18.1046 16 19 16.8954 19 18C19 19.1046 18.1046 20 17 20H10C8.89543 20 8 19.1046 8 18Z" fill="black"/>
</svg>
