<svg width="36" height="36" viewBox="0 0 36 36" fill="none" xmlns="http://www.w3.org/2000/svg">
<rect x="1" y="1" width="34" height="34" rx="5" fill="#F6E000"/>
<rect x="1" y="1" width="34" height="34" rx="5" stroke="#F9C901" stroke-width="2"/>
<path d="M24.884 18.884C25.1178 18.6492 25.249 18.3313 25.249 18C25.249 17.6686 25.1178 17.3508 24.884 17.116L19.884 12.116C19.7679 11.9999 19.6301 11.9078 19.4784 11.845C19.3268 11.7822 19.1642 11.7498 19 11.7498C18.6685 11.7498 18.3505 11.8815 18.116 12.116C17.8816 12.3504 17.7499 12.6684 17.7499 13C17.7499 13.3315 17.8816 13.6495 18.116 13.884L20.982 16.75L12 16.75C11.6685 16.75 11.3506 16.8817 11.1161 17.1161C10.8817 17.3505 10.75 17.6685 10.75 18C10.75 18.3315 10.8817 18.6494 11.1161 18.8839C11.3506 19.1183 11.6685 19.25 12 19.25L20.982 19.25L18.116 22.116C17.9999 22.2321 17.9079 22.3699 17.845 22.5216C17.7822 22.6732 17.7499 22.8358 17.7499 23C17.7499 23.1642 17.7822 23.3267 17.845 23.4784C17.9079 23.6301 17.9999 23.7679 18.116 23.884C18.2321 24.0001 18.3699 24.0922 18.5216 24.155C18.6733 24.2178 18.8359 24.2501 19 24.2501C19.1642 24.2501 19.3268 24.2178 19.4784 24.155C19.6301 24.0922 19.7679 24.0001 19.884 23.884L24.884 18.884Z" fill="black"/>
</svg>
